<?xml version="1.0" encoding="utf-8"?>
<!-- Generator: Adobe Illustrator 23.0.2, SVG Export Plug-In . SVG Version: 6.00 Build 0)  -->
<svg version="1.1" xmlns="http://www.w3.org/2000/svg" xmlns:xlink="http://www.w3.org/1999/xlink" x="0px" y="0px"
	 viewBox="0 0 1000 1000" style="enable-background:new 0 0 1000 1000;" xml:space="preserve">
<style type="text/css">
	.st0{fill:#B68241;}
	.st1{fill:#895A2F;}
	.st2{fill:#25274D;}
	.st3{fill:none;stroke:#25274D;stroke-width:15;stroke-linecap:round;stroke-linejoin:round;}
	.st4{display:none;}
	.st5{display:inline;fill:#FFFFFF;}
	.st6{display:inline;fill:#25274D;}
	.st7{display:inline;fill:#C5EDFC;}
	.st8{display:inline;fill:#A9ABB7;}
	.st9{fill:#E2950F;}
	.st10{fill:#F9BB2D;}
	.st11{stroke:#000000;stroke-miterlimit:10;}
	.st12{fill:#D10000;stroke:#000000;stroke-miterlimit:10;}
	.st13{opacity:0.47;fill:#FFFFFF;stroke:#000000;stroke-miterlimit:10;}
	.st14{fill:#FCE300;}
	.st15{fill:none;stroke:#FCE300;stroke-width:19;stroke-miterlimit:10;}
	.st16{fill:#6D4900;}
	.st17{font-family:'Rockwell-Regular';}
	.st18{font-size:104px;}
	.st19{fill:#D89500;}
</style>
<g id="Layer_3">
	
		<image style="overflow:visible;" width="466" height="318" xlink:href="../../Downloads/51VFV3pHfwL._SX466_.jpg"  transform="matrix(2.1459 0 0 3.1447 0 0)">
	</image>
	
		<image style="overflow:visible;opacity:0.86;" width="1000" height="649" xlink:href="../../Downloads/DSC_5551-1000x649.jpg"  transform="matrix(1 0 0 1.5408 0 0)">
	</image>
</g>
<g id="Layer_1">
	<title>ClarenceVector</title>
	<g id="Layer_8">
		<path class="st0" d="M829.9,624.8c0,0,42.7-7.7,27.7-35.4c-29.5-54.7-92.2-274.2-92.2-274.2l-2-12.9c45.9-17.2,69.2-68.5,52-114.4
			s-68.5-69.2-114.4-52c-22.8,8.6-41.1,26.1-50.6,48.6c0,0-67.7-23.8-143-23.8h-33.7c-75.3,0-142.9,23.7-142.9,23.7
			c-19.1-45.2-71.2-66.4-116.4-47.3s-66.4,71.2-47.3,116.4c9.5,22.5,27.8,40.1,50.7,48.6l-2,12.9c0,0-62.6,219.5-92.1,274.2
			c-14.9,27.7,27.7,35.4,27.7,35.4s-7.9,39.3-30.4,63.7V699c86.3,105.6,217.6,173,364.6,173c152.3,0,287.8-72.3,373.8-184.5
			C837.5,662.9,829.9,624.8,829.9,624.8z"/>
		<path class="st1" d="M420,866.3c-0.2,0.3-0.4,0.7-0.5,1C302.3,850.8,195.7,790.7,120.9,699v-10.5c22.5-24.4,30.4-63.7,30.4-63.7
			s-42.7-7.7-27.7-35.4c12.1-22.5,29.8-72.8,46.5-124.2c25.9,0.5,51.8,2,77.2,6.8c36.6,7,72.7,21.4,99.9,47
			c11.9,11.2,22.3,25.2,24.1,41.3c1.7,14.8-4,30.7,2.1,44.4c6.4,14.5,23.1,20.7,38.1,25.5c-5.4,28.5-9.1,56.5-7.4,85.4
			c0.7,11.4,2.4,23.7,10.4,31.7c9.5,9.5,24.5,9.9,38,9.6l127-2.2c8.2-0.2,17.7,0.3,22.8,6.8c4.4,5.6,3.5,13.8,0.9,20.4
			c-5.8,14.4-9.1,28.7-23.9,33.1s-32.9,4.7-47.5-0.4c-7.4-2.6-21.9-12.1-26.2-18.7c-9.9,2.8-15.9,3.1-25.9,0.5
			c-9.6,14.5-22.1,27.7-32.4,41.7C439.3,849,431.5,859.6,420,866.3z"/>
		<path class="st2" d="M485.5,887c-146.4,0-283.5-65-376.2-178.5c-2.2-2.7-3.4-6-3.4-9.5v-10.5c0-3.8,1.4-7.4,4-10.1
			c11.3-12.3,19-30.4,23.2-43.5c-9-3.8-19.4-10.2-24.6-20.9c-3.3-6.8-5.6-17.8,1.9-31.7c27.5-51,86.3-255.2,90.7-270.3l0.1-0.6
			c-50.9-26.4-70.8-89.1-44.4-140s89.1-70.8,140-44.4c17.3,9,31.7,22.6,41.6,39.4c23.6-6.9,76.9-20.6,135.3-20.6h33.7
			c58.4,0,111.8,13.6,135.3,20.6c29.2-49.4,92.9-65.8,142.2-36.6s65.8,92.9,36.6,142.2c-9.9,16.7-24.3,30.4-41.5,39.3l0.1,0.6
			c4.3,15.1,63.2,219.4,90.7,270.3c7.5,13.9,5.2,24.9,1.9,31.7c-5.1,10.7-15.5,17.1-24.5,20.9c3.8,12,10.9,29.7,22.3,42.5
			c4.8,5.4,5,13.4,0.7,19.1C826.5,754.7,769.4,802,704,835.2C636.3,869.4,561.4,887.2,485.5,887z M136.1,693.9
			C272,856,501.5,903.4,690.4,808.4c57.9-29.3,108.9-70.6,149.8-121c-18.1-26.2-24.7-58-25-59.6c-1.6-8.1,3.6-16,11.7-17.7
			c0.1,0,0.2,0,0.3,0c7.2-1.4,16.9-5.6,18.5-9.1c0.4-0.8-0.4-2.9-1.3-4.5c-29.9-55.5-90.8-268.2-93.4-277.2
			c-0.2-0.6-0.3-1.2-0.4-1.8l-2-12.9c-1.1-7,2.9-13.9,9.5-16.4c38.2-14.3,57.5-56.9,43.2-95.1s-56.9-57.5-95.1-43.2
			c-19,7.1-34.2,21.7-42.1,40.4c-3.1,7.3-11.3,10.9-18.8,8.3c-0.7-0.2-66.3-22.9-138-22.9h-33.8c-71.6,0-137.3,22.7-138,22.9
			c-7.5,2.6-15.7-1.1-18.7-8.3c-15.9-37.6-59.2-55.1-96.8-39.3s-55.1,59.2-39.3,96.8c7.9,18.7,23.1,33.3,42.1,40.4
			c6.7,2.5,10.7,9.3,9.6,16.4l-2,12.9c-0.1,0.6-0.2,1.2-0.4,1.8c-2.6,9-63.4,221.7-93.4,277.2c-0.8,1.5-1.7,3.6-1.3,4.5
			c1.6,3.5,11.3,7.7,18.5,9.1c8.1,1.5,13.5,9.2,12.1,17.3c0,0.1,0,0.2-0.1,0.4C165.6,629.5,157.9,666.8,136.1,693.9z M829.9,624.9
			L829.9,624.9z"/>
	</g>
	<g id="Layer_11">
		<path class="st1" d="M288.3,213.9c-3-21.8-23-37-44.8-34.1s-37,23-34.1,44.8c2.5,18.2,17.1,32.4,35.4,34.2
			C254.4,239.9,269.6,224.2,288.3,213.9z"/>
		<path class="st1" d="M735.5,179.6c-19.8-1.8-37.9,11.4-42.3,30.8c0.3,0.2,0.7,0.5,1,0.7c17.6-12.9,42.3-9.2,55.3,8.4
			c5.7,7.8,8.4,17.3,7.6,26.9c-0.1,1.5-0.3,2.9-0.6,4.3c17.4-13.5,20.5-38.5,7-55.9C756.6,186.1,746.5,180.6,735.5,179.6
			L735.5,179.6z"/>
	</g>
	<g id="Layer_4">
		<path class="st2" d="M586.6,539c-2.6-3.2-7.3-3.8-10.5-1.2c-3.2,2.6-3.8,7.3-1.2,10.5l0,0c8.3,10.5,21.6,30.3,17,45.2
			c-5.4,17.8-35.5,36.4-103.6,36.4H488c-0.3,0-0.7-0.1-1,0h-2.5H482h-0.1c-0.3,0-0.6,0-0.8,0c-68.4,0-98.6-18.6-104-36.4
			c-4.5-14.9,8.8-34.8,17-45.2c2.6-3.2,2-8-1.2-10.5c-3.2-2.6-8-2-10.5,1.2l0,0c-17.7,22.4-24.5,42.7-19.6,58.9
			c4.3,14.3,24.5,47.1,117.8,47.1h4h4c93.3,0,113.5-32.8,117.8-47.1C611.1,581.7,604.3,561.4,586.6,539z"/>
		<path class="st2" d="M514.2,546.3h-58c-8.3,0-15-6.7-15-15c0-8.3,6.7-15,15-15l0,0h58c8.3,0,15,6.7,15,15S522.5,546.3,514.2,546.3
			z"/>
		<path class="st3" d="M288,204.6c-8.8-20.9-33-30.7-53.9-21.9c-20.9,8.8-30.7,33-21.9,53.9c4.4,10.4,12.9,18.5,23.4,22.5"/>
		<path class="st3" d="M693.1,204.6c8.8-20.9,33-30.7,53.9-21.9c20.9,8.8,30.7,33,21.9,53.9c-4.4,10.4-12.9,18.5-23.5,22.5"/>
		<path class="st2" d="M488.6,591.5c0.5,0,0.6,0,2.8,1.6c3.8,2.9,9.6,7.2,23.1,8.2c1,0.1,2,0.1,3,0.1c21.7,0,28.9-17.2,29.2-17.9
			c1.6-3.8-0.3-8.2-4.1-9.8s-8.2,0.3-9.8,4.1c0,0.1-4,9.4-17.3,8.5c-9.1-0.6-12.1-2.9-15.1-5.2c-2.7-2-6.1-4.6-11.8-4.6h-9.6
			c-5.7,0-9.1,2.6-11.8,4.6c-3,2.2-6,4.5-15.1,5.2c-13.3,0.9-17.3-8.4-17.3-8.5c-1.6-3.8-5.9-5.7-9.8-4.1c-3.8,1.6-5.7,5.9-4.1,9.8
			c0.3,0.8,7.5,17.9,29.2,17.9c1,0,2,0,3-0.1c13.5-0.9,19.3-5.3,23.1-8.2c2.1-1.6,2.3-1.6,2.8-1.6H488.6z"/>
	</g>
	<g id="glasses" class="st4">
		<path class="st5" d="M169.3,413.2c0-19.4,10.6-37.3,27.7-46.7c6.2-3.3,12.6-6.1,19.3-8.3c8.7-2.9,17.6-5,26.6-6.5
			c27.1-2.8,52.7-2.8,76.2-0.1c36,4.1,67.3,14.6,93,31.3l0.2,0.1c7.6,5.1,11.9,13.9,11.2,23.1l-3.7,56.1
			c-4.9,30.8-9.5,43.5-21.4,59.3c-14.8,19.4-36.1,32.8-59.9,37.6c-28.6,6-82.4,13.1-121.8-6.3c-40-19.7-47.2-76.8-48-108.6
			L169.3,413.2z M800.5,444.2c-0.8,31.8-8.1,88.9-48,108.6c-39.4,19.4-93.2,12.3-121.8,6.3c-23.9-4.9-45.2-18.3-59.9-37.6
			c-11.8-15.7-16.5-28.5-21.4-59.3l-3.7-56.1c-0.7-9.2,3.7-18,11.3-23.1l0.2-0.1c25.7-16.7,57-27.2,93-31.3
			c23.5-2.7,49.1-2.6,76.2,0.1c9,1.5,17.9,3.7,26.6,6.5c6.7,2.2,13.1,5,19.3,8.3c17,9.4,27.6,27.2,27.6,46.7L800.5,444.2z"/>
		<path class="st6" d="M865.5,354.1c-0.5-0.2-4.4-1.8-11-4.1c-1-0.4-1.5-0.6-1.5-0.6h0c-32.7-11.3-66.3-19.6-100.5-24.7
			c-37.5-5.6-72.8-6.6-104.9-3c-40.8,4.6-76.6,16.7-106.3,36c-10.2,6.6-18.2,16.1-23,27.3h-66.4c-4.8-11.1-12.8-20.6-23-27.3
			c-29.7-19.3-65.5-31.4-106.3-36c-32.1-3.6-67.4-2.6-104.9,3c-34.2,5.1-67.8,13.4-100.5,24.7H117c0,0-0.6,0.2-1.5,0.6
			c-6.6,2.3-10.4,3.9-11,4.1c-7.7,3.1-11.4,11.9-8.2,19.6c1.5,3.8,4.5,6.7,8.3,8.3c4.5,3,10.5,5.2,17.3,6.6
			c14.7,2.9,12.7,16.2,12.7,16.2v22.7c0,9.3,7.5,16.8,16.8,16.8l0,0h2.7c0.3,12.2,1.4,24.3,3.4,36.3c7.3,42.6,25.6,72.3,53.1,85.8
			c14.9,7.3,37.8,14.3,70.6,14.3c17.4,0,37.6-2,60.9-6.8c27.4-5.6,51.9-21,68.8-43.3c13.5-17.9,19-32.8,24.3-66.3l0.1-0.3l1.4-21.6
			c1,0.2,2,0.3,3,0.3c6.9,0,13-4.8,14.6-11.5c0.5-2,3.8-16.5,1.9-31.2h58c-1.9,14.7,1.4,29.2,1.9,31.2c1.6,6.7,7.6,11.5,14.6,11.5
			c1,0,2-0.1,3-0.3l1.5,21.6v0.3c5.3,33.5,10.8,48.4,24.3,66.3c17,22.3,41.4,37.7,68.8,43.3c23.3,4.9,43.5,6.8,60.9,6.8
			c32.9,0,55.7-7,70.6-14.3c27.4-13.5,45.8-43.2,53-85.8c2-12,3.1-24.1,3.4-36.3h2.6c9.3,0,16.8-7.5,16.8-16.8l0,0v-22.7
			c0,0-2-13.3,12.7-16.2c6.8-1.4,12.8-3.6,17.3-6.6c7.7-3.1,11.4-11.8,8.3-19.5C872.2,358.6,869.2,355.6,865.5,354.1L865.5,354.1z
			 M169.7,413.2c0-19.4,10.6-37.3,27.6-46.7c6.2-3.3,12.6-6.1,19.3-8.3c8.7-2.9,17.6-5,26.6-6.5c27.1-2.8,52.7-2.8,76.2-0.1
			c36,4.1,67.3,14.6,93,31.3l0.2,0.1c7.6,5.1,11.9,13.9,11.2,23.1l-3.7,56.2c-4.9,30.8-9.5,43.5-21.4,59.3
			c-14.8,19.4-36.1,32.8-59.9,37.6c-28.6,6-82.4,13.1-121.8-6.3c-40-19.7-47.2-76.8-48-108.6L169.7,413.2z M801,444.2
			c-0.8,31.8-8.1,88.9-48,108.6c-39.4,19.4-93.2,12.3-121.8,6.3c-23.9-4.9-45.2-18.3-59.9-37.6c-11.9-15.7-16.5-28.5-21.4-59.3
			l-3.7-56.1c-0.7-9.2,3.6-18,11.2-23.1l0.2-0.1c25.7-16.7,57-27.2,93-31.3c23.5-2.7,49.1-2.6,76.2,0.1c9,1.5,17.9,3.7,26.6,6.5
			c6.7,2.2,13.1,5,19.3,8.3c17,9.4,27.6,27.2,27.6,46.7L801,444.2z"/>
		<path class="st7" d="M348,544.7c-38,5-77-4-103-32c-36.9-40.8-37-101.3-29.7-154.2c-6.3,2.1-12.5,4.8-18.4,8
			c-17,9.4-27.6,27.2-27.6,46.7l-0.7,31c0.8,31.8,8.1,88.9,48,108.6c39.4,19.4,93.2,12.3,121.8,6.3c23.9-4.9,45.2-18.3,59.9-37.6
			c7.1-9,12.3-19.4,15.4-30.4C399.8,517.1,380.3,539.7,348,544.7z"/>
		<path class="st7" d="M594,511.7c-27.8-42.2-22.6-91.7-20.5-138.3c-5.6,2.8-11.1,6-16.4,9.4l-0.2,0.1c-7.6,5.1-11.9,13.9-11.2,23.1
			l3.7,56.2c4.9,30.8,9.5,43.5,21.4,59.3c14.8,19.4,36.1,32.8,59.9,37.6c15.1,3.2,37.3,6.7,60.7,6.4
			C653.4,561.2,617,545.9,594,511.7z"/>
		
			<ellipse transform="matrix(7.088895e-02 -0.9975 0.9975 7.088895e-02 -254.6913 462.308)" class="st8" cx="120.8" cy="367.9" rx="6.3" ry="6.3"/>
		<circle class="st8" cx="140.8" cy="367.9" r="6.3"/>
		<circle class="st8" cx="830.1" cy="367.9" r="6.3"/>
		<circle class="st8" cx="850.1" cy="367.9" r="6.3"/>
	</g>
	<g id="eyes" class="st4">
		<circle class="st6" cx="348" cy="440.3" r="29.5"/>
		<circle class="st6" cx="621.7" cy="440.3" r="29.5"/>
	</g>
	<g id="Bowtie">
		<path class="st2" d="M485.8,741.3l-17.2-32.6c-2.1-4.1-5.3-7.5-9.3-9.9L420,674.7c-0.1-0.1-0.2-0.1-0.3-0.2
			c-1.3-0.7-31.9-17.1-55.1,0.6c-19,14.6-16.8,35-12.8,44l25,65.8c6,16.5,21.8,27.4,39.4,27.2c6.4-0.1,12.7-1.2,18.7-3.4
			c23.2-8.1,39.5-25.8,49.1-39.3C489.9,761.1,490.6,750.2,485.8,741.3z M471.8,760.7c-6.8,9.6-21.3,26.7-41.8,33.8
			c-11.6,4-21.5,3.3-29.4-2.2c-4.5-3.2-7.9-7.6-9.7-12.8l-25.1-66c0-0.1-0.1-0.3-0.2-0.4c-0.3-0.6-6.5-14.9,8.2-26.2
			c4.7-3.5,10.4-5.3,16.3-5.1c11,0,21.1,5,22.3,5.7l39.2,24c1.6,1,2.9,2.4,3.8,4.1l5.3,10.1l-33.2-0.2l0,0c-4.1,0-7.5,3.4-7.5,7.5
			s3.4,7.5,7.5,7.5l41.3,0.2l4,7.5C474.8,752.3,474.4,757.1,471.8,760.7z"/>
		<path class="st9" d="M472.3,747.8c-19.6,22.8-47.1,40.5-69.4,18.9c-20-19.1-27.9-46.6-35.5-73.1c-3.8,5.8-4.5,13.1-1.9,19.6
			c0.1,0.1,0.1,0.3,0.2,0.4l25.1,66c1.9,5.1,5.3,9.6,9.7,12.8c7.9,5.5,17.8,6.2,29.4,2.2c20.5-7.1,35-24.2,41.8-33.8
			c2.6-3.7,2.9-8.5,0.8-12.5L472.3,747.8z"/>
		<path class="st10" d="M403,766.7c22.3,21.6,49.7,3.9,69.4-18.9l-3.7-7l-41.3-0.2c-4.1,0-7.5-3.4-7.5-7.5s3.4-7.5,7.5-7.5l0,0
			l33.2,0.2l-5.3-10c-0.9-1.7-2.2-3.1-3.8-4.1l-39.2-24c-1.2-0.6-11.3-5.7-22.3-5.7c-5.9-0.2-11.6,1.6-16.3,5.1
			c-2.4,1.8-4.6,4.1-6.2,6.6C375.1,720.2,383,747.6,403,766.7z"/>
		<path class="st2" d="M502.4,769.4c9.6,13.5,25.9,31.2,49.1,39.3c6,2.2,12.4,3.3,18.8,3.4c17.6,0.2,33.4-10.7,39.4-27.2l25-65.8
			c3.9-9,6.2-29.4-12.8-44c-23.2-17.8-53.8-1.3-55.1-0.6c-0.1,0.1-0.2,0.1-0.3,0.2L527,698.7c-3.9,2.4-7.1,5.8-9.3,9.9l-17.2,32.6
			C495.8,750.2,496.5,761.1,502.4,769.4z M513.9,748.3l4-7.5l41.3-0.2c4.1,0,7.5-3.4,7.5-7.5s-3.4-7.5-7.5-7.5l0,0l-33.3,0.2l5.3-10
			c0.9-1.7,2.2-3.1,3.8-4.1l39.2-24c1.2-0.6,11.3-5.7,22.3-5.7c5.9-0.2,11.6,1.6,16.3,5.1c14.7,11.2,8.5,25.6,8.2,26.2
			c-0.1,0.1-0.1,0.3-0.2,0.4l-25.1,66c-1.9,5.1-5.3,9.6-9.7,12.8c-7.9,5.5-17.8,6.2-29.4,2.2c-20.5-7.1-35-24.2-41.8-33.8
			C512.1,757.1,511.8,752.3,513.9,748.3L513.9,748.3z"/>
		<path class="st9" d="M517.2,742l-3.3,6.3c-2.1,4-1.8,8.8,0.8,12.5c6.8,9.6,21.3,26.7,41.8,33.8c11.6,4,21.5,3.3,29.4-2.2
			c4.5-3.2,7.9-7.6,9.7-12.8l5-13.2c-9.5,7-20.9,11.4-32.7,11.4C546.5,776.8,529.8,759.9,517.2,742z"/>
		<path class="st10" d="M612.7,687c-4.7-3.5-10.5-5.3-16.3-5.1c-11,0-21.1,5-22.3,5.7l-39.2,24c-1.6,1-2.9,2.4-3.8,4.1l-5.3,10.1
			l33.3-0.2l0,0c4.1,0,7.5,3.4,7.5,7.5s-3.4,7.5-7.5,7.5l-41.3,0.2l-0.6,1.2c12.7,17.9,29.3,34.8,50.9,35.7
			c11.8,0,23.2-4.4,32.7-11.4l20-52.7c0-0.1,0.1-0.3,0.2-0.4C621.2,712.6,627.4,698.3,612.7,687z"/>
		<path class="st10" d="M517,743.7c5.2-2.9,9.8-6.6,13.7-11c1.9-8.7,1.4-18.6-5.2-23.9c-10.6-8.4-31.8-8.4-31.8-8.4h-6.3
			c0,0-21.2,0-31.8,8.4c-6.4,5.1-7,14.7-5.3,23.1C465,751.6,494,754.4,517,743.7z"/>
		<path class="st9" d="M517,743.7c-23,10.7-52,7.8-66.7-11.8c0.9,4.8,2.7,9.4,5.3,13.6c5.8,8.5,14.3,19.5,28.1,24.1l3.3,0.6
			c1,0.2,2,0.4,3,0.4h1.2c1,0,2-0.2,3-0.4l3.3-0.6c13.8-4.6,22.3-15.6,28.1-24.1c2.5-3.9,4.2-8.3,5.1-12.8
			C526.8,737.2,522.1,740.9,517,743.7z"/>
		<path class="st2" d="M491.3,778.1h-1.5c-1.4,0-2.9-0.2-4.3-0.5l-3.6-0.6l-0.5-0.2c-15.2-5-24.7-16.5-31.9-27s-13-35.3,1.5-46.9
			c12.3-9.8,34-10.1,36.5-10.1h6.3c2.5,0,24.2,0.3,36.5,10.1c14.5,11.6,8.8,36.3,1.5,46.9s-16.7,21.9-31.9,27l-0.5,0.2l-3.6,0.6
			C494.2,777.9,492.8,778.1,491.3,778.1L491.3,778.1z M497.4,769.7L497.4,769.7z M490.1,763.1h0.9c0.4,0,0.9-0.1,1.3-0.2l0.5-0.1
			l2.8-0.5c10.7-3.7,17.7-12.3,23.7-21c4.1-6,7.7-21.7,1.5-26.6c-7-5.5-22.3-6.8-27.1-6.8h-6.3c-5.2,0-20.2,1.3-27.1,6.8
			c-6.2,4.9-2.6,20.6,1.5,26.6c6,8.7,13,17.3,23.8,21l3.3,0.6C489.2,763.1,489.7,763.1,490.1,763.1z"/>
	</g>
</g>
<g id="Layer_2">
	
		<image style="overflow:visible;" width="1920" height="1080" xlink:href="../../Downloads/584999b17b7d4d76317f6000.png"  transform="matrix(0.6216 0 0 0.6216 -89.2995 98.4222)">
	</image>
	<polygon class="st11" points="515.5,586.3 693.2,708 732.5,647.1 532.8,577.8 	"/>
	<polygon class="st12" points="760.2,666.9 732.5,647.1 693.2,708 717.5,708 	"/>
	<rect x="316.1" y="380.4" class="st13" width="35" height="35"/>
	<rect x="281.5" y="415.4" class="st13" width="34.6" height="34.6"/>
	<rect x="248.5" y="450" class="st13" width="33.1" height="33.1"/>
	<rect x="316.1" y="450" class="st13" width="34.6" height="34.6"/>
	<rect x="351.1" y="415.4" class="st13" width="34.6" height="34.6"/>
	<rect x="385.7" y="380.4" class="st13" width="34.1" height="34.1"/>
	<rect x="767.7" y="382.6" class="st13" width="35" height="35"/>
	<rect x="733.1" y="417.6" class="st13" width="34.6" height="34.6"/>
	<rect x="700.1" y="452.2" class="st13" width="33.1" height="33.1"/>
	<rect x="767.7" y="452.2" class="st13" width="34.6" height="34.6"/>
	<rect x="802.7" y="417.6" class="st13" width="34.6" height="34.6"/>
	<rect x="837.3" y="382.6" class="st13" width="34.1" height="34.1"/>
	<circle class="st14" cx="483.9" cy="906.9" r="72.9"/>
	<g id="Layer_4_1_">
		<ellipse transform="matrix(0.5 -0.866 0.866 0.5 -559.88 509.216)" class="st15" cx="161.1" cy="739.5" rx="9.5" ry="64.1"/>
		<ellipse transform="matrix(0.5 -0.866 0.866 0.5 -550.324 760.805)" class="st15" cx="383.7" cy="857" rx="30" ry="64.1"/>
		<ellipse transform="matrix(0.5 -0.866 0.866 0.5 -564.4713 595.4325)" class="st15" cx="233.4" cy="786.6" rx="30" ry="64.1"/>
		<ellipse transform="matrix(0.5 -0.866 0.866 0.5 -550.324 458.8196)" class="st15" cx="122.2" cy="706" rx="30" ry="42"/>
		<ellipse transform="matrix(0.5 -0.866 0.866 0.5 -564.4713 670.9478)" class="st15" cx="298.8" cy="824.3" rx="9.5" ry="64.1"/>
		<ellipse transform="matrix(0.866 -0.5 0.5 0.866 -266.9251 506.0416)" class="st15" cx="810.8" cy="751.1" rx="64.1" ry="9.5"/>
		<ellipse transform="matrix(0.866 -0.5 0.5 0.866 -355.5154 410.4559)" class="st15" cx="588.2" cy="868.6" rx="64.1" ry="30"/>
		<ellipse transform="matrix(0.866 -0.5 0.5 0.866 -300.1631 476.1647)" class="st15" cx="738.5" cy="798.2" rx="64.1" ry="30"/>
		<ellipse transform="matrix(0.866 -0.5 0.5 0.866 -244.981 520.9902)" class="st15" cx="849.7" cy="717.6" rx="42" ry="30"/>
		<ellipse transform="matrix(0.866 -0.5 0.5 0.866 -327.8036 448.5242)" class="st15" cx="673.1" cy="836" rx="64.1" ry="9.5"/>
		<text transform="matrix(1 0 0 1 456.9801 940.7324)" class="st16 st17 st18">$</text>
		<text transform="matrix(1 0 0 1 456.9801 937.7324)" class="st19 st17 st18">$</text>
	</g>
</g>
</svg>
