<?xml version="1.0" encoding="utf-8"?>
<!-- Generator: Adobe Illustrator 23.0.2, SVG Export Plug-In . SVG Version: 6.00 Build 0)  -->
<svg version="1.1" id="Layer_1" xmlns="http://www.w3.org/2000/svg" xmlns:xlink="http://www.w3.org/1999/xlink" x="0px" y="0px"
	 viewBox="0 0 800 800" style="enable-background:new 0 0 800 800;" xml:space="preserve">
<style type="text/css">
	.st0{fill:#B68241;}
	.st1{fill:#895A2F;}
	.st2{fill:#25274D;}
	.st3{fill:none;stroke:#25274D;stroke-width:15;stroke-linecap:round;stroke-linejoin:round;}
	.st4{fill:#FFFFFF;}
	.st5{fill:#C5EDFC;}
	.st6{fill:#A9ABB7;}
	.st7{fill:#E2950F;}
	.st8{fill:#F9BB2D;}
</style>
<title>ClarenceVector</title>
<g id="Layer_8">
	<path class="st0" d="M740.8,524.5c0,0,42.7-7.7,27.7-35.4c-29.5-54.7-92.2-274.2-92.2-274.2l-2-12.9c45.9-17.2,69.2-68.5,52-114.4
		s-68.5-69.2-114.4-52c-22.8,8.6-41.1,26.1-50.6,48.6c0,0-67.7-23.8-143-23.8h-33.7c-75.3,0-142.9,23.7-142.9,23.7
		c-19.1-45.2-71.2-66.4-116.4-47.3S58.9,108,78,153.2c9.5,22.5,27.8,40.1,50.7,48.6l-2,12.9c0,0-62.6,219.5-92.1,274.2
		c-14.9,27.7,27.7,35.4,27.7,35.4s-7.9,39.3-30.4,63.7v10.5c86.3,105.6,217.6,173,364.6,173c152.3,0,287.7-72.3,373.8-184.5
		C748.5,562.5,740.8,524.5,740.8,524.5z"/>
	<path class="st1" d="M330.9,765.9c-0.2,0.3-0.4,0.7-0.5,1c-117.2-16.5-223.8-76.6-298.6-168.3v-10.5c22.5-24.4,30.4-63.7,30.4-63.7
		s-42.7-7.7-27.7-35.4c12.1-22.5,29.8-72.8,46.5-124.2c25.9,0.5,51.8,2,77.2,6.8c36.6,7,72.7,21.4,99.9,47
		c11.9,11.2,22.3,25.2,24.1,41.3c1.7,14.8-4,30.7,2.1,44.4c6.4,14.5,23.1,20.7,38.1,25.5c-5.4,28.5-9.1,56.5-7.4,85.4
		c0.7,11.4,2.4,23.7,10.4,31.7c9.5,9.5,24.5,9.9,38,9.6l127-2.2c8.2-0.2,17.7,0.3,22.8,6.8c4.4,5.6,3.5,13.8,0.9,20.4
		c-5.8,14.4-9.1,28.7-23.9,33.1s-32.9,4.7-47.5-0.4c-7.4-2.6-21.9-12.1-26.2-18.7c-9.9,2.8-15.9,3.1-25.9,0.5
		c-9.6,14.5-22.1,27.7-32.4,41.7C350.2,748.6,342.5,759.2,330.9,765.9z"/>
	<path class="st2" d="M396.4,786.6c-146.4,0-283.5-65-376.2-178.5c-2.2-2.7-3.4-6-3.4-9.5v-10.5c0-3.8,1.4-7.4,4-10.1
		c11.3-12.3,19-30.4,23.2-43.5c-9-3.8-19.4-10.2-24.6-20.9c-3.3-6.8-5.6-17.8,1.9-31.7c27.5-51,86.3-255.2,90.7-270.3l0.1-0.6
		c-50.9-26.4-70.8-89.1-44.4-140s89.1-70.8,140-44.4c17.3,9,31.7,22.6,41.6,39.4c23.6-6.9,76.9-20.6,135.3-20.6h33.7
		c58.4,0,111.8,13.6,135.3,20.6c29.2-49.4,92.9-65.8,142.2-36.6s65.8,92.9,36.6,142.2c-9.9,16.7-24.3,30.4-41.5,39.3l0.1,0.6
		c4.3,15.1,63.2,219.4,90.7,270.3c7.5,13.9,5.2,24.9,1.9,31.7c-5.1,10.7-15.5,17.1-24.5,20.9c3.8,12,10.9,29.7,22.3,42.5
		c4.8,5.4,5,13.4,0.7,19.1c-44.7,58.1-101.8,105.5-167.2,138.6C547.2,769.1,472.3,786.8,396.4,786.6z M47,593.5
		C182.9,755.6,412.4,803,601.4,708c57.9-29.3,108.9-70.6,149.8-121c-18.1-26.2-24.7-58-25-59.6c-1.6-8.1,3.6-16,11.7-17.7
		c0.1,0,0.2,0,0.3,0c7.2-1.4,16.9-5.6,18.5-9.1c0.4-0.8-0.4-2.9-1.3-4.5C725.4,440.6,664.6,228,662,218.9c-0.2-0.6-0.3-1.2-0.4-1.8
		l-2-12.9c-1.1-7,2.9-13.9,9.5-16.4c38.2-14.3,57.5-56.9,43.2-95.1s-56.9-57.5-95.1-43.2c-19,7.1-34.2,21.7-42.1,40.4
		c-3.1,7.3-11.3,10.9-18.8,8.3c-0.7-0.2-66.3-22.9-138-22.9h-33.8c-71.6,0-137.3,22.7-138,22.9c-7.5,2.6-15.7-1.1-18.7-8.3
		c-15.9-37.6-59.2-55.1-96.8-39.3c-37.6,15.9-55.1,59.2-39.3,96.8c7.9,18.7,23.1,33.3,42.1,40.4c6.7,2.5,10.7,9.3,9.6,16.4l-2,12.9
		c-0.1,0.6-0.2,1.2-0.4,1.8c-2.6,9-63.4,221.7-93.4,277.2c-0.8,1.5-1.7,3.6-1.3,4.5c1.6,3.5,11.3,7.7,18.5,9.1
		c8.1,1.5,13.5,9.2,12.1,17.3c0,0.1,0,0.2-0.1,0.4C76.6,529.1,68.8,566.4,47,593.5z M740.8,524.5L740.8,524.5z"/>
</g>
<g id="Layer_11">
	<path class="st1" d="M199.2,113.5c-3-21.8-23-37-44.8-34.1s-37,23-34.1,44.8c2.5,18.2,17.1,32.4,35.4,34.2
		C165.4,139.5,180.5,123.8,199.2,113.5z"/>
	<path class="st1" d="M646.4,79.2c-19.8-1.8-37.9,11.4-42.3,30.8c0.3,0.2,0.7,0.5,1,0.7c17.6-12.9,42.3-9.2,55.3,8.4
		c5.7,7.8,8.4,17.3,7.6,26.9c-0.1,1.5-0.3,2.9-0.6,4.3c17.4-13.5,20.5-38.5,7-55.9C667.5,85.7,657.4,80.2,646.4,79.2L646.4,79.2z"/>
</g>
<g id="Layer_4">
	<path class="st2" d="M497.5,438.6c-2.6-3.2-7.3-3.8-10.5-1.2c-3.2,2.6-3.8,7.3-1.2,10.5l0,0c8.3,10.5,21.6,30.3,17,45.2
		c-5.4,17.8-35.5,36.4-103.6,36.4h-0.2c-0.3,0-0.7-0.1-1,0h-2.5h-2.5h-0.1c-0.3,0-0.6,0-0.8,0c-68.4,0-98.6-18.6-104-36.4
		c-4.5-14.9,8.8-34.8,17-45.2c2.6-3.2,2-8-1.2-10.5c-3.2-2.6-8-2-10.5,1.2l0,0c-17.7,22.4-24.5,42.7-19.6,58.9
		c4.3,14.3,24.5,47.1,117.8,47.1h4h4c93.3,0,113.5-32.8,117.8-47.1C522,481.4,515.2,461,497.5,438.6z"/>
	<path class="st2" d="M425.1,445.9h-58c-8.3,0-15-6.7-15-15c0-8.3,6.7-15,15-15l0,0h58c8.3,0,15,6.7,15,15S433.4,445.9,425.1,445.9z
		"/>
	<path class="st3" d="M198.9,104.2c-8.8-20.9-33-30.7-53.9-21.9c-20.9,8.8-30.7,33-21.9,53.9c4.4,10.4,12.9,18.5,23.4,22.5"/>
	<path class="st3" d="M604,104.2c8.8-20.9,33-30.7,53.9-21.9c20.9,8.8,30.7,33,21.9,53.9c-4.4,10.4-12.9,18.5-23.5,22.5"/>
	<path class="st2" d="M399.6,491.1c0.5,0,0.6,0,2.8,1.6c3.8,2.9,9.6,7.2,23.1,8.2c1,0.1,2,0.1,3,0.1c21.7,0,28.9-17.2,29.2-17.9
		c1.6-3.8-0.3-8.2-4.1-9.8s-8.2,0.3-9.8,4.1c0,0.1-4,9.4-17.3,8.5c-9.1-0.6-12.1-2.9-15.1-5.2c-2.7-2-6.1-4.6-11.8-4.6H390
		c-5.7,0-9.1,2.6-11.8,4.6c-3,2.2-6,4.5-15.1,5.2c-13.3,0.9-17.3-8.4-17.3-8.5c-1.6-3.8-5.9-5.7-9.8-4.1c-3.8,1.6-5.7,5.9-4.1,9.8
		c0.3,0.8,7.5,17.9,29.2,17.9c1,0,2,0,3-0.1c13.5-0.9,19.3-5.3,23.1-8.2c2.1-1.6,2.3-1.6,2.8-1.6H399.6z"/>
</g>
<g id="glasses">
	<path class="st4" d="M80.2,312.8c0-19.4,10.6-37.3,27.7-46.7c6.2-3.3,12.6-6.1,19.3-8.3c8.7-2.9,17.6-5,26.6-6.5
		c27.1-2.8,52.7-2.8,76.2-0.1c36,4.1,67.3,14.6,93,31.3l0.2,0.1c7.6,5.1,11.9,13.9,11.2,23.1l-3.7,56.1
		c-4.9,30.8-9.5,43.5-21.4,59.3c-14.8,19.4-36.1,32.8-59.9,37.6c-28.6,6-82.4,13.1-121.8-6.3c-40-19.7-47.2-76.8-48-108.6
		L80.2,312.8z M711.5,343.8c-0.8,31.8-8.1,88.9-48,108.6c-39.4,19.4-93.2,12.3-121.8,6.3c-23.9-4.9-45.2-18.3-59.9-37.6
		c-11.8-15.7-16.5-28.5-21.4-59.3l-3.7-56.1c-0.7-9.2,3.7-18,11.3-23.1l0.2-0.1c25.7-16.7,57-27.2,93-31.3
		c23.5-2.7,49.1-2.6,76.2,0.1c9,1.5,17.9,3.7,26.6,6.5c6.7,2.2,13.1,5,19.3,8.3c17,9.4,27.6,27.2,27.6,46.7L711.5,343.8z"/>
	<path class="st2" d="M776.4,253.7c-0.5-0.2-4.4-1.8-11-4.1c-1-0.4-1.5-0.6-1.5-0.6h0c-32.7-11.3-66.3-19.6-100.5-24.7
		c-37.5-5.6-72.8-6.6-104.9-3c-40.8,4.6-76.6,16.7-106.3,36c-10.2,6.6-18.2,16.1-23,27.3h-66.4c-4.8-11.1-12.8-20.6-23-27.3
		c-29.7-19.3-65.5-31.4-106.3-36c-32.1-3.6-67.4-2.6-104.9,3C94.3,229.4,60.7,237.7,28,249h-0.1c0,0-0.6,0.2-1.5,0.6
		c-6.6,2.3-10.4,3.9-11,4.1c-7.7,3.1-11.4,11.9-8.2,19.6c1.5,3.8,4.5,6.7,8.3,8.3c4.5,3,10.5,5.2,17.3,6.6
		c14.7,2.9,12.7,16.2,12.7,16.2v22.7c0,9.3,7.5,16.8,16.8,16.8l0,0h2.7c0.3,12.2,1.4,24.3,3.4,36.3c7.3,42.6,25.6,72.3,53.1,85.8
		c14.9,7.3,37.8,14.3,70.6,14.3c17.4,0,37.6-2,60.9-6.8c27.4-5.6,51.9-21,68.8-43.3c13.5-17.9,19-32.8,24.3-66.3l0.1-0.3l1.4-21.6
		c1,0.2,2,0.3,3,0.3c6.9,0,13-4.8,14.6-11.5c0.5-2,3.8-16.5,1.9-31.2h58c-1.9,14.7,1.4,29.2,1.9,31.2c1.6,6.7,7.6,11.5,14.6,11.5
		c1,0,2-0.1,3-0.3l1.5,21.6v0.3c5.3,33.5,10.8,48.4,24.3,66.3c17,22.3,41.4,37.7,68.8,43.3c23.3,4.9,43.5,6.8,60.9,6.8
		c32.9,0,55.7-7,70.6-14.3c27.4-13.5,45.8-43.2,53-85.8c2-12,3.1-24.1,3.4-36.3h2.6c9.3,0,16.8-7.5,16.8-16.8l0,0v-22.7
		c0,0-2-13.3,12.7-16.2c6.8-1.4,12.8-3.6,17.3-6.6c7.7-3.1,11.4-11.8,8.3-19.5C783.1,258.2,780.1,255.2,776.4,253.7L776.4,253.7z
		 M80.7,312.8c0-19.4,10.6-37.3,27.6-46.7c6.2-3.3,12.6-6.1,19.3-8.3c8.7-2.9,17.6-5,26.6-6.5c27.1-2.8,52.7-2.8,76.2-0.1
		c36,4.1,67.3,14.6,93,31.3l0.2,0.1c7.6,5.1,11.9,13.9,11.2,23.1l-3.7,56.2c-4.9,30.8-9.5,43.5-21.4,59.3
		c-14.8,19.4-36.1,32.8-59.9,37.6c-28.6,6-82.4,13.1-121.8-6.3c-40-19.7-47.2-76.8-48-108.6L80.7,312.8z M711.9,343.8
		c-0.8,31.8-8.1,88.9-48,108.6c-39.4,19.4-93.2,12.3-121.8,6.3c-23.9-4.9-45.2-18.3-59.9-37.6c-11.9-15.7-16.5-28.5-21.4-59.3
		l-3.7-56.1c-0.7-9.2,3.6-18,11.2-23.1l0.2-0.1c25.7-16.7,57-27.2,93-31.3c23.5-2.7,49.1-2.6,76.2,0.1c9,1.5,17.9,3.7,26.6,6.5
		c6.7,2.2,13.1,5,19.3,8.3c17,9.4,27.6,27.2,27.6,46.7L711.9,343.8z"/>
	<path class="st5" d="M258.9,444.4c-38,5-77-4-103-32c-36.9-40.8-37-101.3-29.7-154.2c-6.3,2.1-12.5,4.8-18.4,8
		c-17,9.4-27.6,27.2-27.6,46.7l-0.7,31c0.8,31.8,8.1,88.9,48,108.6c39.4,19.4,93.3,12.3,121.8,6.3c23.9-4.9,45.2-18.3,59.9-37.6
		c7.1-9,12.3-19.4,15.4-30.4C310.7,416.7,291.3,439.4,258.9,444.4z"/>
	<path class="st5" d="M504.9,411.4c-27.8-42.2-22.6-91.7-20.5-138.3c-5.6,2.8-11.1,6-16.4,9.4l-0.2,0.1
		c-7.6,5.1-11.9,13.9-11.2,23.1l3.7,56.2c4.9,30.8,9.5,43.5,21.4,59.3c14.8,19.4,36.1,32.8,59.9,37.6c15.1,3.2,37.3,6.7,60.7,6.4
		C564.3,460.8,528,445.6,504.9,411.4z"/>
	
		<ellipse transform="matrix(7.088895e-02 -0.9975 0.9975 7.088895e-02 -237.3267 280.1719)" class="st6" cx="31.7" cy="267.5" rx="6.3" ry="6.3"/>
	<circle class="st6" cx="51.7" cy="267.5" r="6.3"/>
	<circle class="st6" cx="741" cy="267.5" r="6.3"/>
	<circle class="st6" cx="761" cy="267.5" r="6.3"/>
</g>
<g id="eyes">
	<circle class="st2" cx="258.9" cy="339.9" r="29.5"/>
	<circle class="st2" cx="532.6" cy="339.9" r="29.5"/>
</g>
<g id="Bowtie">
	<path class="st2" d="M396.8,640.9l-17.2-32.6c-2.1-4.1-5.3-7.5-9.3-9.9l-39.4-24.1c-0.1-0.1-0.2-0.1-0.3-0.2
		c-1.3-0.7-31.9-17.1-55.1,0.6c-19,14.6-16.8,35-12.8,44l25,65.8c6,16.5,21.8,27.4,39.4,27.2c6.4-0.1,12.7-1.2,18.7-3.4
		c23.2-8.1,39.5-25.8,49.1-39.3C400.8,660.7,401.5,649.8,396.8,640.9z M382.7,660.4c-6.8,9.6-21.3,26.7-41.8,33.8
		c-11.6,4-21.5,3.3-29.4-2.2c-4.5-3.2-7.9-7.6-9.7-12.8l-25.1-66c0-0.1-0.1-0.3-0.2-0.4c-0.3-0.6-6.5-14.9,8.2-26.2
		c4.7-3.5,10.4-5.3,16.3-5.1c11,0,21.1,5,22.3,5.7l39.2,24c1.6,1,2.9,2.4,3.8,4.1l5.3,10.1l-33.2-0.2l0,0c-4.1,0-7.5,3.4-7.5,7.5
		s3.4,7.5,7.5,7.5l41.3,0.2l4,7.5C385.7,651.9,385.3,656.7,382.7,660.4z"/>
	<path class="st7" d="M383.2,647.4c-19.6,22.8-47.1,40.5-69.4,18.9c-20-19.1-27.9-46.6-35.5-73.1c-3.8,5.8-4.5,13.1-1.9,19.6
		c0.1,0.1,0.1,0.3,0.2,0.4l25.1,66c1.9,5.1,5.3,9.6,9.7,12.8c7.9,5.5,17.8,6.2,29.4,2.2c20.5-7.1,35-24.2,41.8-33.8
		c2.6-3.7,2.9-8.5,0.8-12.5L383.2,647.4z"/>
	<path class="st8" d="M313.9,666.4c22.3,21.6,49.7,3.9,69.4-18.9l-3.7-7l-41.3-0.2c-4.1,0-7.5-3.4-7.5-7.5s3.4-7.5,7.5-7.5l0,0
		l33.2,0.2l-5.3-10c-0.9-1.7-2.2-3.1-3.8-4.1l-39.2-24c-1.2-0.6-11.3-5.7-22.3-5.7c-5.9-0.2-11.6,1.6-16.3,5.1
		c-2.4,1.8-4.6,4.1-6.2,6.6C286,619.8,293.9,647.2,313.9,666.4z"/>
	<path class="st2" d="M413.4,669c9.6,13.5,25.9,31.2,49.1,39.3c6,2.2,12.4,3.3,18.8,3.4c17.6,0.2,33.4-10.7,39.4-27.2l25-65.8
		c3.9-9,6.2-29.4-12.8-44c-23.2-17.8-53.8-1.3-55.1-0.6c-0.1,0.1-0.2,0.1-0.3,0.2L438,598.4c-3.9,2.4-7.1,5.8-9.3,9.9l-17.2,32.6
		C406.7,649.8,407.4,660.7,413.4,669z M424.8,647.9l4-7.5l41.3-0.2c4.1,0,7.5-3.4,7.5-7.5s-3.4-7.5-7.5-7.5l0,0l-33.3,0.2l5.3-10
		c0.9-1.7,2.2-3.1,3.8-4.1l39.2-24c1.2-0.6,11.3-5.7,22.3-5.7c5.9-0.2,11.6,1.6,16.3,5.1c14.7,11.2,8.5,25.6,8.2,26.2
		c-0.1,0.1-0.1,0.3-0.2,0.4l-25.1,66c-1.9,5.1-5.3,9.6-9.7,12.8c-7.9,5.5-17.8,6.2-29.4,2.2c-20.5-7.1-35-24.2-41.8-33.8
		C423,656.7,422.7,651.9,424.8,647.9L424.8,647.9z"/>
	<path class="st7" d="M428.1,641.6l-3.3,6.3c-2.1,4-1.8,8.8,0.8,12.5c6.8,9.6,21.3,26.7,41.8,33.8c11.6,4,21.5,3.3,29.4-2.2
		c4.5-3.2,7.9-7.6,9.7-12.8l5-13.2c-9.5,7-20.9,11.4-32.7,11.4C457.4,676.5,440.7,659.5,428.1,641.6z"/>
	<path class="st8" d="M523.6,586.6c-4.7-3.5-10.5-5.3-16.3-5.1c-11,0-21.1,5-22.3,5.7l-39.2,24c-1.6,1-2.9,2.4-3.8,4.1l-5.3,10.1
		l33.3-0.2l0,0c4.1,0,7.5,3.4,7.5,7.5s-3.4,7.5-7.5,7.5l-41.3,0.2l-0.6,1.2c12.7,17.9,29.3,34.8,50.9,35.7
		c11.8,0,23.2-4.4,32.7-11.4l20-52.7c0-0.1,0.1-0.3,0.2-0.4C532.1,612.2,538.3,597.9,523.6,586.6z"/>
	<path class="st8" d="M427.9,643.4c5.2-2.9,9.8-6.6,13.7-11c1.9-8.7,1.4-18.6-5.2-23.9c-10.6-8.4-31.8-8.4-31.8-8.4h-6.3
		c0,0-21.2,0-31.8,8.4c-6.4,5.1-7,14.7-5.3,23.1C375.9,651.2,404.9,654,427.9,643.4z"/>
	<path class="st7" d="M427.9,643.4c-23,10.7-52,7.8-66.7-11.8c0.9,4.8,2.7,9.4,5.3,13.6c5.8,8.5,14.3,19.5,28.1,24.1l3.3,0.6
		c1,0.2,2,0.4,3,0.4h1.2c1,0,2-0.2,3-0.4l3.3-0.6c13.8-4.6,22.3-15.6,28.1-24.1c2.5-3.9,4.2-8.3,5.1-12.8
		C437.7,636.8,433.1,640.5,427.9,643.4z"/>
	<path class="st2" d="M402.2,677.8h-1.5c-1.4,0-2.9-0.2-4.3-0.5l-3.6-0.6l-0.5-0.2c-15.2-5-24.7-16.5-31.9-27s-13-35.3,1.5-46.9
		c12.3-9.8,34-10.1,36.5-10.1h6.3c2.5,0,24.2,0.3,36.5,10.1c14.5,11.6,8.8,36.3,1.5,46.9s-16.7,21.9-31.9,27l-0.5,0.2l-3.6,0.6
		C405.1,677.5,403.7,677.7,402.2,677.8L402.2,677.8z M408.4,669.3L408.4,669.3z M401,662.8h0.9c0.4,0,0.9-0.1,1.3-0.2l0.5-0.1
		l2.8-0.5c10.7-3.7,17.7-12.3,23.7-21c4.1-6,7.7-21.7,1.5-26.6c-7-5.5-22.3-6.8-27.1-6.8h-6.3c-5.2,0-20.2,1.3-27.1,6.8
		c-6.2,4.9-2.6,20.6,1.5,26.6c6,8.7,13,17.3,23.8,21l3.3,0.6C400.2,662.7,400.6,662.7,401,662.8z"/>
</g>
</svg>
